<svg width="40" height="40" viewBox="0 0 40 40" fill="none" xmlns="http://www.w3.org/2000/svg">
<path d="M0 20C0 8.95431 8.95431 0 20 0C31.0457 0 40 8.95431 40 20C40 31.0457 31.0457 40 20 40C8.95431 40 0 31.0457 0 20Z" fill="#2D5A27"/>
<path d="M15.3891 14.448C16.0931 14.448 16.6691 14.5547 17.1171 14.768C17.5758 14.9707 17.9811 15.2107 18.3331 15.488C18.5465 15.648 18.7065 15.6693 18.8131 15.552C18.9305 15.424 19.0105 15.1307 19.0531 14.672H19.4211C19.3998 15.0667 19.3838 15.5467 19.3731 16.112C19.3625 16.6773 19.3571 17.424 19.3571 18.352H18.9891C18.9145 17.8933 18.8451 17.5307 18.7811 17.264C18.7171 16.9867 18.6371 16.752 18.5411 16.56C18.4558 16.368 18.3385 16.176 18.1891 15.984C17.8585 15.5467 17.4425 15.232 16.9411 15.04C16.4398 14.8373 15.9118 14.736 15.3571 14.736C14.8345 14.736 14.3598 14.8693 13.9331 15.136C13.5171 15.392 13.1545 15.7653 12.8451 16.256C12.5465 16.7467 12.3118 17.3387 12.1411 18.032C11.9811 18.7253 11.9011 19.504 11.9011 20.368C11.9011 21.264 11.9918 22.0587 12.1731 22.752C12.3545 23.4347 12.6051 24.0107 12.9251 24.48C13.2558 24.9493 13.6398 25.3067 14.0771 25.552C14.5251 25.7867 15.0051 25.904 15.5171 25.904C15.9971 25.904 16.4985 25.808 17.0211 25.616C17.5438 25.424 17.9545 25.1147 18.2531 24.688C18.4878 24.3787 18.6478 24.0427 18.7331 23.68C18.8291 23.3173 18.9145 22.8107 18.9891 22.16H19.3571C19.3571 23.1307 19.3625 23.9147 19.3731 24.512C19.3838 25.0987 19.3998 25.5947 19.4211 26H19.0531C19.0105 25.5413 18.9358 25.2533 18.8291 25.136C18.7331 25.0187 18.5678 25.0347 18.3331 25.184C17.9385 25.4613 17.5171 25.7067 17.0691 25.92C16.6318 26.1227 16.0665 26.224 15.3731 26.224C14.3598 26.224 13.4691 25.9947 12.7011 25.536C11.9438 25.0773 11.3518 24.416 10.9251 23.552C10.5091 22.688 10.3011 21.648 10.3011 20.432C10.3011 19.2373 10.5198 18.192 10.9571 17.296C11.3945 16.4 11.9918 15.7013 12.7491 15.2C13.5171 14.6987 14.3971 14.448 15.3891 14.448ZM25.6368 14.592L29.5408 24.656C29.7008 25.0613 29.8821 25.3333 30.0848 25.472C30.2874 25.6 30.4741 25.6693 30.6448 25.68V26C30.4314 25.9787 30.1701 25.968 29.8608 25.968C29.5514 25.9573 29.2421 25.952 28.9328 25.952C28.5168 25.952 28.1274 25.9573 27.7648 25.968C27.4021 25.968 27.1088 25.9787 26.8848 26V25.68C27.4288 25.6587 27.7754 25.568 27.9248 25.408C28.0741 25.2373 28.0421 24.88 27.8288 24.336L24.8528 16.384L25.1088 16.176L22.3248 23.408C22.1541 23.8347 22.0528 24.1973 22.0208 24.496C21.9888 24.784 22.0154 25.0133 22.1008 25.184C22.1968 25.3547 22.3514 25.4773 22.5648 25.552C22.7888 25.6267 23.0661 25.6693 23.3968 25.68V26C23.0981 25.9787 22.7834 25.968 22.4528 25.968C22.1328 25.9573 21.8341 25.952 21.5568 25.952C21.2901 25.952 21.0608 25.9573 20.8688 25.968C20.6874 25.968 20.5168 25.9787 20.3567 26V25.68C20.5701 25.6267 20.7888 25.504 21.0128 25.312C21.2368 25.1093 21.4394 24.768 21.6208 24.288L25.3808 14.592C25.4234 14.592 25.4661 14.592 25.5088 14.592C25.5514 14.592 25.5941 14.592 25.6368 14.592ZM27.5888 21.392V21.712H22.8207L22.9808 21.392H27.5888Z" fill="white"/>
</svg>
